<?xml version="1.0" encoding="UTF-8" standalone="no"?>
<!-- Created with Inkscape (http://www.inkscape.org/) -->

<svg
   version="1.1"
   id="svg2"
   width="1516.8975"
   height="333.65588"
   viewBox="0 0 1516.8975 333.65588"
   xmlns="http://www.w3.org/2000/svg"
   xmlns:svg="http://www.w3.org/2000/svg">
  <defs
     id="defs6">
    <clipPath
       clipPathUnits="userSpaceOnUse"
       id="clipPath126">
      <path
         d="M 0,1080 H 1920 V 0 H 0 Z"
         id="path124" />
    </clipPath>
  </defs>
  <g
     id="g106"
     transform="matrix(1.3333333,0,0,-1.3333333,-521.55078,902.24768)">
    <g
       id="g110"
       transform="translate(437.207,515.6904)">
      <path
         d="M 0,0 H 17.388 L 8.372,82.107 Z M 21.574,-41.215 H -4.186 L -8.05,-81.464 h -37.994 l 30.267,239.562 H 35.098 L 67.618,-81.464 H 26.082 Z"
         style="fill:#3cc0f0;fill-opacity:1;fill-rule:nonzero;stroke:none"
         id="path112" />
    </g>
    <g
       id="g114"
       transform="translate(553.7676,434.2266)">
      <path
         d="M 0,0 H -42.825 V 239.562 H 0 v -92.09 l 28.013,92.09 h 42.18 L 36.385,130.729 73.735,0 H 28.657 L 0,101.427 Z"
         style="fill:#3cc0f0;fill-opacity:1;fill-rule:nonzero;stroke:none"
         id="path116" />
    </g>
    <path
       d="m 674.834,434.227 h -42.825 v 239.562 h 42.825 z"
       style="fill:#3cc0f0;fill-opacity:1;fill-rule:nonzero;stroke:none"
       id="path118" />
    <g
       id="g120">
      <g
         id="g122"
         clip-path="url(#clipPath126)">
        <g
           id="g128"
           transform="translate(731.1777,569.1406)">
          <path
             d="m 0,0 h 8.05 c 9.981,0 10.947,6.118 10.947,13.523 V 53.45 c 0,8.695 -0.966,14.168 -10.947,14.168 H 0 Z m 0,-38.961 v -95.953 h -42.825 v 239.561 h 60.856 c 36.385,0 44.113,-17.709 44.113,-47.333 V 9.338 c 0,-29.623 -11.914,-48.299 -41.859,-48.299 z"
             style="fill:#ffffff;fill-opacity:1;fill-rule:nonzero;stroke:none"
             id="path130" />
        </g>
        <g
           id="g132"
           transform="translate(871.2412,619.0498)">
          <path
             d="m 0,0 c 0,10.625 -3.864,15.777 -11.27,15.777 -8.694,0 -11.591,-5.152 -11.591,-15.777 v -131.373 c 0,-7.405 2.897,-14.167 11.913,-14.167 8.694,0 10.948,6.762 10.948,14.167 z m 44.757,-130.085 c 0,-35.097 -18.676,-58.28 -50.875,-58.28 h -9.659 c -33.81,0 -51.841,20.607 -51.841,58.28 V -3.542 c 0,37.028 14.489,61.178 51.518,61.178 h 9.66 c 37.673,0 51.197,-24.15 51.197,-60.857 z"
             style="fill:#ffffff;fill-opacity:1;fill-rule:nonzero;stroke:none"
             id="path134" />
        </g>
        <g
           id="g136"
           transform="translate(984.5801,676.6855)">
          <path
             d="M 0,0 C 33.487,0 46.045,-14.812 46.045,-47.011 V -79.21 H 4.83 v 29.945 c 0,7.729 -1.61,12.558 -9.338,12.558 -7.405,0 -9.338,-4.829 -9.338,-12.879 v -5.475 c 0,-11.269 2.576,-18.997 13.202,-30.911 l 24.471,-27.369 c 21.573,-24.471 26.082,-40.57 26.082,-61.5 v -11.269 c 0,-36.064 -16.422,-59.246 -52.163,-59.246 h -8.372 c -32.52,0 -48.942,17.386 -48.942,49.585 v 43.148 h 42.18 v -38.317 c 0,-9.661 3.542,-14.49 10.949,-14.49 7.084,0 10.625,5.796 10.625,17.387 v 4.509 c 0,16.743 -0.966,23.505 -13.845,37.35 l -24.794,27.37 c -18.031,19.319 -22.861,37.672 -22.861,60.856 v 10.304 C -57.314,-16.743 -38.639,0 -8.693,0 Z"
             style="fill:#ffffff;fill-opacity:1;fill-rule:nonzero;stroke:none"
             id="path138" />
        </g>
        <g
           id="g140"
           transform="translate(1100.8154,676.6855)">
          <path
             d="M 0,0 C 33.487,0 46.045,-14.812 46.045,-47.011 V -79.21 H 4.83 v 29.945 c 0,7.729 -1.61,12.558 -9.338,12.558 -7.405,0 -9.338,-4.829 -9.338,-12.879 v -5.475 c 0,-11.269 2.576,-18.997 13.202,-30.911 l 24.471,-27.369 c 21.574,-24.471 26.082,-40.57 26.082,-61.5 v -11.269 c 0,-36.064 -16.422,-59.246 -52.163,-59.246 h -8.372 c -32.52,0 -48.942,17.386 -48.942,49.585 v 43.148 h 42.18 v -38.317 c 0,-9.661 3.542,-14.49 10.949,-14.49 7.084,0 10.626,5.796 10.626,17.387 v 4.509 c 0,16.743 -0.967,23.505 -13.846,37.35 l -24.794,27.37 c -18.031,19.319 -22.861,37.672 -22.861,60.856 v 10.304 C -57.314,-16.743 -38.639,0 -8.693,0 Z"
             style="fill:#ffffff;fill-opacity:1;fill-rule:nonzero;stroke:none"
             id="path142" />
        </g>
        <g
           id="g144"
           transform="translate(1227.0342,619.0498)">
          <path
             d="m 0,0 c 0,10.625 -3.864,15.777 -11.27,15.777 -8.694,0 -11.591,-5.152 -11.591,-15.777 v -131.373 c 0,-7.405 2.897,-14.167 11.913,-14.167 8.694,0 10.948,6.762 10.948,14.167 z m 44.757,-130.085 c 0,-35.097 -18.676,-58.28 -50.875,-58.28 h -9.659 c -33.81,0 -51.841,20.607 -51.841,58.28 V -3.542 c 0,37.028 14.489,61.178 51.518,61.178 h 9.66 c 37.673,0 51.197,-24.15 51.197,-60.857 z"
             style="fill:#ffffff;fill-opacity:1;fill-rule:nonzero;stroke:none"
             id="path146" />
        </g>
        <g
           id="g148"
           transform="translate(1521.0792,580.3409)">
          <path
             d="m 0,0 -82.366,0.298 0.294,81.19 c 0.016,4.3 -3.457,7.798 -7.757,7.814 l -49.678,0.18 c -4.3,0.015 -7.798,-3.458 -7.814,-7.757 l -0.294,-81.19 -80.013,0.289 c -4.3,0.016 -7.798,-3.457 -7.814,-7.757 l -0.18,-49.678 c -0.015,-4.299 3.458,-7.797 7.757,-7.813 l 80.014,-0.29 -0.294,-81.19 c -0.016,-4.299 3.458,-7.798 7.757,-7.813 l 49.678,-0.18 c 4.3,-0.016 7.798,3.457 7.814,7.757 l 0.294,81.19 82.366,-0.298 c 4.299,-0.016 7.798,3.457 7.813,7.757 l 0.18,49.678 C 7.773,-3.514 4.3,-0.016 0,0"
             style="fill:#ffffff;fill-opacity:1;fill-rule:nonzero;stroke:none"
             id="path150" />
        </g>
      </g>
    </g>
  </g>
</svg>
